<svg xmlns="http://www.w3.org/2000/svg" viewBox="0 0 680 264" role="img"><rect width="100%" height="100%" fill="#ffffff"/><text x="16" y="24" font-size="16" font-weight="700" fill="#212529">Critical rate by depth, Q1=yes</text><text x="16" y="59" font-size="12" fill="#343a40">7</text><rect x="190" y="45" width="400.0" height="18" rx="3" fill="#2f9e44"/><text x="598.0" y="59" font-size="12" fill="#495057">50.0%</text><text x="16" y="87" font-size="12" fill="#343a40">5</text><rect x="190" y="73" width="224.0" height="18" rx="3" fill="#2f9e44"/><text x="422.0" y="87" font-size="12" fill="#495057">28.0%</text><text x="16" y="115" font-size="12" fill="#343a40">4</text><rect x="190" y="101" width="160.6" height="18" rx="3" fill="#2f9e44"/><text x="358.6" y="115" font-size="12" fill="#495057">20.07%</text><text x="16" y="143" font-size="12" fill="#343a40">6</text><rect x="190" y="129" width="160.0" height="18" rx="3" fill="#2f9e44"/><text x="358.0" y="143" font-size="12" fill="#495057">20.0%</text><text x="16" y="171" font-size="12" fill="#343a40">2</text><rect x="190" y="157" width="153.7" height="18" rx="3" fill="#2f9e44"/><text x="351.7" y="171" font-size="12" fill="#495057">19.21%</text><text x="16" y="199" font-size="12" fill="#343a40">3</text><rect x="190" y="185" width="137.8" height="18" rx="3" fill="#2f9e44"/><text x="335.8" y="199" font-size="12" fill="#495057">17.23%</text><text x="16" y="227" font-size="12" fill="#343a40">1</text><rect x="190" y="213" width="78.0" height="18" rx="3" fill="#2f9e44"/><text x="276.0" y="227" font-size="12" fill="#495057">9.75%</text></svg>