<svg xmlns="http://www.w3.org/2000/svg" viewBox="0 0 680 404" role="img"><rect width="100%" height="100%" fill="#ffffff"/><text x="16" y="24" font-size="16" font-weight="700" fill="#212529">Worst images by critical rate</text><text x="16" y="59" font-size="12" fill="#343a40">000000012953</text><rect x="190" y="45" width="400.0" height="18" rx="3" fill="#2f9e44"/><text x="598.0" y="59" font-size="12" fill="#495057">80.0%</text><text x="16" y="87" font-size="12" fill="#343a40">000000014861</text><rect x="190" y="73" width="375.0" height="18" rx="3" fill="#2f9e44"/><text x="573.0" y="87" font-size="12" fill="#495057">75.0%</text><text x="16" y="115" font-size="12" fill="#343a40">000000014855</text><rect x="190" y="101" width="370.3" height="18" rx="3" fill="#2f9e44"/><text x="568.3" y="115" font-size="12" fill="#495057">74.07%</text><text x="16" y="143" font-size="12" fill="#343a40">000000011323</text><rect x="190" y="129" width="363.6" height="18" rx="3" fill="#2f9e44"/><text x="561.6" y="143" font-size="12" fill="#495057">72.73%</text><text x="16" y="171" font-size="12" fill="#343a40">000000013020</text><rect x="190" y="157" width="328.1" height="18" rx="3" fill="#2f9e44"/><text x="526.1" y="171" font-size="12" fill="#495057">65.62%</text><text x="16" y="199" font-size="12" fill="#343a40">000000014504</text><rect x="190" y="185" width="321.5" height="18" rx="3" fill="#2f9e44"/><text x="519.5" y="199" font-size="12" fill="#495057">64.29%</text><text x="16" y="227" font-size="12" fill="#343a40">000000014862</text><rect x="190" y="213" width="318.2" height="18" rx="3" fill="#2f9e44"/><text x="516.2" y="227" font-size="12" fill="#495057">63.64%</text><text x="16" y="255" font-size="12" fill="#343a40">000000011422</text><rect x="190" y="241" width="318.2" height="18" rx="3" fill="#2f9e44"/><text x="516.2" y="255" font-size="12" fill="#495057">63.64%</text><text x="16" y="283" font-size="12" fill="#343a40">000000015759</text><rect x="190" y="269" width="312.5" height="18" rx="3" fill="#2f9e44"/><text x="510.5" y="283" font-size="12" fill="#495057">62.5%</text><text x="16" y="311" font-size="12" fill="#343a40">000000014975</text><rect x="190" y="297" width="310.4" height="18" rx="3" fill="#2f9e44"/><text x="508.4" y="311" font-size="12" fill="#495057">62.07%</text><text x="16" y="339" font-size="12" fill="#343a40">000000011402</text><rect x="190" y="325" width="302.4" height="18" rx="3" fill="#2f9e44"/><text x="500.4" y="339" font-size="12" fill="#495057">60.47%</text><text x="16" y="367" font-size="12" fill="#343a40">000000010432</text><rect x="190" y="353" width="300.0" height="18" rx="3" fill="#2f9e44"/><text x="498.0" y="367" font-size="12" fill="#495057">60.0%</text></svg>