<svg xmlns="http://www.w3.org/2000/svg" viewBox="0 0 680 404" role="img"><rect width="100%" height="100%" fill="#ffffff"/><text x="16" y="24" font-size="16" font-weight="700" fill="#212529">Pruning benefit per node loss</text><text x="16" y="59" font-size="12" fill="#343a40">mullion</text><rect x="190" y="45" width="400.0" height="18" rx="3" fill="#2f9e44"/><text x="598.0" y="59" font-size="12" fill="#495057">4.7</text><text x="16" y="87" font-size="12" fill="#343a40">petal</text><rect x="190" y="73" width="372.3" height="18" rx="3" fill="#2f9e44"/><text x="570.3" y="87" font-size="12" fill="#495057">4.375</text><text x="16" y="115" font-size="12" fill="#343a40">stove</text><rect x="190" y="101" width="308.5" height="18" rx="3" fill="#2f9e44"/><text x="506.5" y="115" font-size="12" fill="#495057">3.625</text><text x="16" y="143" font-size="12" fill="#343a40">palm</text><rect x="190" y="129" width="299.9" height="18" rx="3" fill="#2f9e44"/><text x="497.9" y="143" font-size="12" fill="#495057">3.524</text><text x="16" y="171" font-size="12" fill="#343a40">leaf</text><rect x="190" y="157" width="297.9" height="18" rx="3" fill="#2f9e44"/><text x="495.9" y="171" font-size="12" fill="#495057">3.5</text><text x="16" y="199" font-size="12" fill="#343a40">grout</text><rect x="190" y="185" width="297.9" height="18" rx="3" fill="#2f9e44"/><text x="495.9" y="199" font-size="12" fill="#495057">3.5</text><text x="16" y="227" font-size="12" fill="#343a40">brick</text><rect x="190" y="213" width="276.6" height="18" rx="3" fill="#2f9e44"/><text x="474.6" y="227" font-size="12" fill="#495057">3.25</text><text x="16" y="255" font-size="12" fill="#343a40">twig</text><rect x="190" y="241" width="276.6" height="18" rx="3" fill="#2f9e44"/><text x="474.6" y="255" font-size="12" fill="#495057">3.25</text><text x="16" y="283" font-size="12" fill="#343a40">sausage</text><rect x="190" y="269" width="276.6" height="18" rx="3" fill="#2f9e44"/><text x="474.6" y="283" font-size="12" fill="#495057">3.25</text><text x="16" y="311" font-size="12" fill="#343a40">branch</text><rect x="190" y="297" width="275.8" height="18" rx="3" fill="#2f9e44"/><text x="473.8" y="311" font-size="12" fill="#495057">3.241</text><text x="16" y="339" font-size="12" fill="#343a40">peel</text><rect x="190" y="325" width="272.3" height="18" rx="3" fill="#2f9e44"/><text x="470.3" y="339" font-size="12" fill="#495057">3.2</text><text x="16" y="367" font-size="12" fill="#343a40">crust</text><rect x="190" y="353" width="270.6" height="18" rx="3" fill="#2f9e44"/><text x="468.6" y="367" font-size="12" fill="#495057">3.179</text></svg>