<svg xmlns="http://www.w3.org/2000/svg" viewBox="0 0 680 404" role="img"><rect width="100%" height="100%" fill="#ffffff"/><text x="16" y="24" font-size="16" font-weight="700" fill="#212529">Top labels by critical share</text><text x="16" y="59" font-size="12" fill="#343a40">tree</text><rect x="190" y="45" width="400.0" height="18" rx="3" fill="#2f9e44"/><text x="598.0" y="59" font-size="12" fill="#495057">3.0%</text><text x="16" y="87" font-size="12" fill="#343a40">head</text><rect x="190" y="73" width="334.7" height="18" rx="3" fill="#2f9e44"/><text x="532.7" y="87" font-size="12" fill="#495057">2.51%</text><text x="16" y="115" font-size="12" fill="#343a40">leg</text><rect x="190" y="101" width="329.3" height="18" rx="3" fill="#2f9e44"/><text x="527.3" y="115" font-size="12" fill="#495057">2.47%</text><text x="16" y="143" font-size="12" fill="#343a40">wall</text><rect x="190" y="129" width="281.3" height="18" rx="3" fill="#2f9e44"/><text x="479.3" y="143" font-size="12" fill="#495057">2.11%</text><text x="16" y="171" font-size="12" fill="#343a40">frame</text><rect x="190" y="157" width="276.0" height="18" rx="3" fill="#2f9e44"/><text x="474.0" y="171" font-size="12" fill="#495057">2.07%</text><text x="16" y="199" font-size="12" fill="#343a40">window</text><rect x="190" y="185" width="226.7" height="18" rx="3" fill="#2f9e44"/><text x="424.7" y="199" font-size="12" fill="#495057">1.7%</text><text x="16" y="227" font-size="12" fill="#343a40">post</text><rect x="190" y="213" width="198.7" height="18" rx="3" fill="#2f9e44"/><text x="396.7" y="227" font-size="12" fill="#495057">1.49%</text><text x="16" y="255" font-size="12" fill="#343a40">arm</text><rect x="190" y="241" width="180.0" height="18" rx="3" fill="#2f9e44"/><text x="378.0" y="255" font-size="12" fill="#495057">1.35%</text><text x="16" y="283" font-size="12" fill="#343a40">sleeve</text><rect x="190" y="269" width="177.3" height="18" rx="3" fill="#2f9e44"/><text x="375.3" y="283" font-size="12" fill="#495057">1.33%</text><text x="16" y="311" font-size="12" fill="#343a40">leaf</text><rect x="190" y="297" width="174.7" height="18" rx="3" fill="#2f9e44"/><text x="372.7" y="311" font-size="12" fill="#495057">1.31%</text><text x="16" y="339" font-size="12" fill="#343a40">door</text><rect x="190" y="325" width="154.7" height="18" rx="3" fill="#2f9e44"/><text x="352.7" y="339" font-size="12" fill="#495057">1.16%</text><text x="16" y="367" font-size="12" fill="#343a40">palm</text><rect x="190" y="353" width="149.3" height="18" rx="3" fill="#2f9e44"/><text x="347.3" y="367" font-size="12" fill="#495057">1.12%</text></svg>