<svg xmlns="http://www.w3.org/2000/svg" viewBox="0 0 680 320" role="img"><rect width="100%" height="100%" fill="#ffffff"/><text x="16" y="24" font-size="16" font-weight="700" fill="#212529">Tree answer distribution</text><text x="16" y="59" font-size="12" fill="#343a40">없음</text><rect x="190" y="45" width="400.0" height="18" rx="3" fill="#2f9e44"/><text x="598.0" y="59" font-size="12" fill="#495057">50.5%</text><text x="16" y="87" font-size="12" fill="#343a40">맞음</text><rect x="190" y="73" width="376.2" height="18" rx="3" fill="#2f9e44"/><text x="574.2" y="87" font-size="12" fill="#495057">47.5%</text><text x="16" y="115" font-size="12" fill="#343a40">대체로 맞음</text><rect x="190" y="101" width="350.9" height="18" rx="3" fill="#2f9e44"/><text x="548.9" y="115" font-size="12" fill="#495057">44.3%</text><text x="16" y="143" font-size="12" fill="#343a40">조금 있음</text><rect x="190" y="129" width="329.5" height="18" rx="3" fill="#2f9e44"/><text x="527.5" y="143" font-size="12" fill="#495057">41.6%</text><text x="16" y="171" font-size="12" fill="#343a40">많이 있음</text><rect x="190" y="157" width="61.0" height="18" rx="3" fill="#2f9e44"/><text x="259.0" y="171" font-size="12" fill="#495057">7.7%</text><text x="16" y="199" font-size="12" fill="#343a40">부분적으로 맞음</text><rect x="190" y="185" width="56.2" height="18" rx="3" fill="#2f9e44"/><text x="254.2" y="199" font-size="12" fill="#495057">7.1%</text><text x="16" y="227" font-size="12" fill="#343a40">아님</text><rect x="190" y="213" width="7.9" height="18" rx="3" fill="#2f9e44"/><text x="205.9" y="227" font-size="12" fill="#495057">1.0%</text><text x="16" y="255" font-size="12" fill="#343a40">판단불가</text><rect x="190" y="241" width="1.6" height="18" rx="3" fill="#2f9e44"/><text x="199.6" y="255" font-size="12" fill="#495057">0.2%</text><text x="16" y="283" font-size="12" fill="#343a40">판단불가</text><rect x="190" y="269" width="0.8" height="18" rx="3" fill="#2f9e44"/><text x="198.8" y="283" font-size="12" fill="#495057">0.1%</text></svg>