<svg xmlns="http://www.w3.org/2000/svg" viewBox="0 0 680 404" role="img"><rect width="100%" height="100%" fill="#ffffff"/><text x="16" y="24" font-size="16" font-weight="700" fill="#212529">User critical rate, Q1=yes</text><text x="16" y="59" font-size="12" fill="#343a40">user17</text><rect x="190" y="45" width="400.0" height="18" rx="3" fill="#2f9e44"/><text x="598.0" y="59" font-size="12" fill="#495057">38.16%</text><text x="16" y="87" font-size="12" fill="#343a40">user5</text><rect x="190" y="73" width="295.2" height="18" rx="3" fill="#2f9e44"/><text x="493.2" y="87" font-size="12" fill="#495057">28.16%</text><text x="16" y="115" font-size="12" fill="#343a40">user15</text><rect x="190" y="101" width="256.3" height="18" rx="3" fill="#2f9e44"/><text x="454.3" y="115" font-size="12" fill="#495057">24.45%</text><text x="16" y="143" font-size="12" fill="#343a40">user4</text><rect x="190" y="129" width="254.2" height="18" rx="3" fill="#2f9e44"/><text x="452.2" y="143" font-size="12" fill="#495057">24.25%</text><text x="16" y="171" font-size="12" fill="#343a40">user10</text><rect x="190" y="157" width="247.5" height="18" rx="3" fill="#2f9e44"/><text x="445.5" y="171" font-size="12" fill="#495057">23.61%</text><text x="16" y="199" font-size="12" fill="#343a40">user16</text><rect x="190" y="185" width="190.8" height="18" rx="3" fill="#2f9e44"/><text x="388.8" y="199" font-size="12" fill="#495057">18.2%</text><text x="16" y="227" font-size="12" fill="#343a40">user2</text><rect x="190" y="213" width="184.2" height="18" rx="3" fill="#2f9e44"/><text x="382.2" y="227" font-size="12" fill="#495057">17.57%</text><text x="16" y="255" font-size="12" fill="#343a40">user1</text><rect x="190" y="241" width="181.1" height="18" rx="3" fill="#2f9e44"/><text x="379.1" y="255" font-size="12" fill="#495057">17.28%</text><text x="16" y="283" font-size="12" fill="#343a40">user20</text><rect x="190" y="269" width="160.9" height="18" rx="3" fill="#2f9e44"/><text x="358.9" y="283" font-size="12" fill="#495057">15.35%</text><text x="16" y="311" font-size="12" fill="#343a40">user3</text><rect x="190" y="297" width="145.7" height="18" rx="3" fill="#2f9e44"/><text x="343.7" y="311" font-size="12" fill="#495057">13.9%</text><text x="16" y="339" font-size="12" fill="#343a40">user14</text><rect x="190" y="325" width="133.0" height="18" rx="3" fill="#2f9e44"/><text x="331.0" y="339" font-size="12" fill="#495057">12.69%</text><text x="16" y="367" font-size="12" fill="#343a40">user8</text><rect x="190" y="353" width="130.4" height="18" rx="3" fill="#2f9e44"/><text x="328.4" y="367" font-size="12" fill="#495057">12.44%</text></svg>