<svg xmlns="http://www.w3.org/2000/svg" width="1552" height="772" viewBox="0 0 1552 772">
<defs><filter id="shadow" x="-20%" y="-20%" width="140%" height="140%"><feDropShadow dx="0" dy="2" stdDeviation="3" flood-color="#000" flood-opacity="0.10"/></filter></defs>
<rect width="100%" height="100%" fill="#fffdf8"/>
<text x="84" y="34" style="font:700 28px Georgia, serif; fill:#1a202c;">Assigned Node Distribution by Reviewer</text>
<text x="84" y="58" style="font: 14px Arial, sans-serif; fill:#6b7280;">Reviewers user1-user20 only, 50 images each, node count = len(actual_nodes)</text>
<text x="84" y="80" style="font:600 15px Arial, sans-serif; fill:#1a202c;">Total assigned nodes: 26,402 across 1,000 images</text>
<rect x="70" y="74" width="1464" height="588" rx="16" fill="#fff" stroke="#eadfce" filter="url(#shadow)"/>
<line x1="84" y1="652.0" x2="1524" y2="652.0" stroke="#e8dcc8" stroke-width="1"/>
<text x="72" y="657.0" text-anchor="end" style="font:12px Arial, sans-serif; fill:#6b7280;">0</text>
<line x1="84" y1="577.3" x2="1524" y2="577.3" stroke="#e8dcc8" stroke-width="1"/>
<text x="72" y="582.3" text-anchor="end" style="font:12px Arial, sans-serif; fill:#6b7280;">10</text>
<line x1="84" y1="502.7" x2="1524" y2="502.7" stroke="#e8dcc8" stroke-width="1"/>
<text x="72" y="507.7" text-anchor="end" style="font:12px Arial, sans-serif; fill:#6b7280;">20</text>
<line x1="84" y1="428.0" x2="1524" y2="428.0" stroke="#e8dcc8" stroke-width="1"/>
<text x="72" y="433.0" text-anchor="end" style="font:12px Arial, sans-serif; fill:#6b7280;">30</text>
<line x1="84" y1="353.3" x2="1524" y2="353.3" stroke="#e8dcc8" stroke-width="1"/>
<text x="72" y="358.3" text-anchor="end" style="font:12px Arial, sans-serif; fill:#6b7280;">40</text>
<line x1="84" y1="278.7" x2="1524" y2="278.7" stroke="#e8dcc8" stroke-width="1"/>
<text x="72" y="283.7" text-anchor="end" style="font:12px Arial, sans-serif; fill:#6b7280;">50</text>
<line x1="84" y1="204.0" x2="1524" y2="204.0" stroke="#e8dcc8" stroke-width="1"/>
<text x="72" y="209.0" text-anchor="end" style="font:12px Arial, sans-serif; fill:#6b7280;">60</text>
<line x1="84" y1="129.3" x2="1524" y2="129.3" stroke="#e8dcc8" stroke-width="1"/>
<text x="72" y="134.3" text-anchor="end" style="font:12px Arial, sans-serif; fill:#6b7280;">70</text>
<line x1="84" y1="54.7" x2="1524" y2="54.7" stroke="#e8dcc8" stroke-width="1"/>
<text x="72" y="59.7" text-anchor="end" style="font:12px Arial, sans-serif; fill:#6b7280;">80</text>
<line x1="84" y1="92" x2="84" y2="652" stroke="#2d3748" stroke-width="1.4"/>
<line x1="84" y1="652" x2="1524" y2="652" stroke="#2d3748" stroke-width="1.4"/>
<text x="26" y="372.0" transform="rotate(-90 26 372.0)" style="font:13px Arial, sans-serif; fill:#2d3748;">Actual nodes per image</text>
<line x1="120.0" y1="607.2" x2="120.0" y2="271.2" stroke="#2d3748" stroke-width="1.5"/>
<line x1="110.0" y1="607.2" x2="130.0" y2="607.2" stroke="#2d3748" stroke-width="1.5"/>
<line x1="110.0" y1="271.2" x2="130.0" y2="271.2" stroke="#2d3748" stroke-width="1.5"/>
<rect x="103.0" y="422.4" width="34.0" height="108.3" rx="6" fill="#f6c177" stroke="#b7791f" stroke-width="1.6"/>
<line x1="103.0" y1="484.0" x2="137.0" y2="484.0" stroke="#c53030" stroke-width="2.2"/>
<circle cx="120.0" cy="462.8" r="3.2" fill="#1f4b99"/>
<circle cx="120.0" cy="248.8" r="2.5" fill="#805ad5" opacity="0.8"/>
<circle cx="120.0" cy="218.9" r="2.5" fill="#805ad5" opacity="0.8"/>
<circle cx="120.0" cy="211.5" r="2.5" fill="#805ad5" opacity="0.8"/>
<text x="120.0" y="678" text-anchor="middle" style="font:12px Arial, sans-serif; fill:#1a202c;">user1</text>
<line x1="192.0" y1="629.6" x2="192.0" y2="233.9" stroke="#2d3748" stroke-width="1.5"/>
<line x1="182.0" y1="629.6" x2="202.0" y2="629.6" stroke="#2d3748" stroke-width="1.5"/>
<line x1="182.0" y1="233.9" x2="202.0" y2="233.9" stroke="#2d3748" stroke-width="1.5"/>
<rect x="175.0" y="407.5" width="34.0" height="128.8" rx="6" fill="#f6c177" stroke="#b7791f" stroke-width="1.6"/>
<line x1="175.0" y1="472.8" x2="209.0" y2="472.8" stroke="#c53030" stroke-width="2.2"/>
<circle cx="192.0" cy="456.7" r="3.2" fill="#1f4b99"/>
<circle cx="192.0" cy="196.5" r="2.5" fill="#805ad5" opacity="0.8"/>
<circle cx="192.0" cy="189.1" r="2.5" fill="#805ad5" opacity="0.8"/>
<text x="192.0" y="678" text-anchor="middle" style="font:12px Arial, sans-serif; fill:#1a202c;">user2</text>
<line x1="264.0" y1="584.8" x2="264.0" y2="241.3" stroke="#2d3748" stroke-width="1.5"/>
<line x1="254.0" y1="584.8" x2="274.0" y2="584.8" stroke="#2d3748" stroke-width="1.5"/>
<line x1="254.0" y1="241.3" x2="274.0" y2="241.3" stroke="#2d3748" stroke-width="1.5"/>
<rect x="247.0" y="413.1" width="34.0" height="119.5" rx="6" fill="#f6c177" stroke="#b7791f" stroke-width="1.6"/>
<line x1="247.0" y1="476.5" x2="281.0" y2="476.5" stroke="#c53030" stroke-width="2.2"/>
<circle cx="264.0" cy="458.8" r="3.2" fill="#1f4b99"/>
<text x="264.0" y="678" text-anchor="middle" style="font:12px Arial, sans-serif; fill:#1a202c;">user3</text>
<line x1="336.0" y1="622.1" x2="336.0" y2="159.2" stroke="#2d3748" stroke-width="1.5"/>
<line x1="326.0" y1="622.1" x2="346.0" y2="622.1" stroke="#2d3748" stroke-width="1.5"/>
<line x1="326.0" y1="159.2" x2="346.0" y2="159.2" stroke="#2d3748" stroke-width="1.5"/>
<rect x="319.0" y="344.0" width="34.0" height="203.5" rx="6" fill="#f6c177" stroke="#b7791f" stroke-width="1.6"/>
<line x1="319.0" y1="480.3" x2="353.0" y2="480.3" stroke="#c53030" stroke-width="2.2"/>
<circle cx="336.0" cy="441.4" r="3.2" fill="#1f4b99"/>
<text x="336.0" y="678" text-anchor="middle" style="font:12px Arial, sans-serif; fill:#1a202c;">user4</text>
<line x1="408.0" y1="592.3" x2="408.0" y2="241.3" stroke="#2d3748" stroke-width="1.5"/>
<line x1="398.0" y1="592.3" x2="418.0" y2="592.3" stroke="#2d3748" stroke-width="1.5"/>
<line x1="398.0" y1="241.3" x2="418.0" y2="241.3" stroke="#2d3748" stroke-width="1.5"/>
<rect x="391.0" y="372.0" width="34.0" height="175.5" rx="6" fill="#f6c177" stroke="#b7791f" stroke-width="1.6"/>
<line x1="391.0" y1="502.7" x2="425.0" y2="502.7" stroke="#c53030" stroke-width="2.2"/>
<circle cx="408.0" cy="471.8" r="3.2" fill="#1f4b99"/>
<text x="408.0" y="678" text-anchor="middle" style="font:12px Arial, sans-serif; fill:#1a202c;">user5</text>
<line x1="480.0" y1="592.3" x2="480.0" y2="196.5" stroke="#2d3748" stroke-width="1.5"/>
<line x1="470.0" y1="592.3" x2="490.0" y2="592.3" stroke="#2d3748" stroke-width="1.5"/>
<line x1="470.0" y1="196.5" x2="490.0" y2="196.5" stroke="#2d3748" stroke-width="1.5"/>
<rect x="463.0" y="390.7" width="34.0" height="141.9" rx="6" fill="#f6c177" stroke="#b7791f" stroke-width="1.6"/>
<line x1="463.0" y1="472.8" x2="497.0" y2="472.8" stroke="#c53030" stroke-width="2.2"/>
<circle cx="480.0" cy="452.2" r="3.2" fill="#1f4b99"/>
<text x="480.0" y="678" text-anchor="middle" style="font:12px Arial, sans-serif; fill:#1a202c;">user6</text>
<line x1="552.0" y1="622.1" x2="552.0" y2="92.0" stroke="#2d3748" stroke-width="1.5"/>
<line x1="542.0" y1="622.1" x2="562.0" y2="622.1" stroke="#2d3748" stroke-width="1.5"/>
<line x1="542.0" y1="92.0" x2="562.0" y2="92.0" stroke="#2d3748" stroke-width="1.5"/>
<rect x="535.0" y="338.4" width="34.0" height="192.3" rx="6" fill="#f6c177" stroke="#b7791f" stroke-width="1.6"/>
<line x1="535.0" y1="450.4" x2="569.0" y2="450.4" stroke="#c53030" stroke-width="2.2"/>
<circle cx="552.0" cy="441.4" r="3.2" fill="#1f4b99"/>
<text x="552.0" y="678" text-anchor="middle" style="font:12px Arial, sans-serif; fill:#1a202c;">user7</text>
<line x1="624.0" y1="614.7" x2="624.0" y2="360.8" stroke="#2d3748" stroke-width="1.5"/>
<line x1="614.0" y1="614.7" x2="634.0" y2="614.7" stroke="#2d3748" stroke-width="1.5"/>
<line x1="614.0" y1="360.8" x2="634.0" y2="360.8" stroke="#2d3748" stroke-width="1.5"/>
<rect x="607.0" y="454.1" width="34.0" height="78.4" rx="6" fill="#f6c177" stroke="#b7791f" stroke-width="1.6"/>
<line x1="607.0" y1="491.5" x2="641.0" y2="491.5" stroke="#c53030" stroke-width="2.2"/>
<circle cx="624.0" cy="476.7" r="3.2" fill="#1f4b99"/>
<circle cx="624.0" cy="330.9" r="2.5" fill="#805ad5" opacity="0.8"/>
<circle cx="624.0" cy="316.0" r="2.5" fill="#805ad5" opacity="0.8"/>
<circle cx="624.0" cy="293.6" r="2.5" fill="#805ad5" opacity="0.8"/>
<circle cx="624.0" cy="286.1" r="2.5" fill="#805ad5" opacity="0.8"/>
<circle cx="624.0" cy="278.7" r="2.5" fill="#805ad5" opacity="0.8"/>
<circle cx="624.0" cy="218.9" r="2.5" fill="#805ad5" opacity="0.8"/>
<text x="624.0" y="678" text-anchor="middle" style="font:12px Arial, sans-serif; fill:#1a202c;">user8</text>
<line x1="696.0" y1="629.6" x2="696.0" y2="226.4" stroke="#2d3748" stroke-width="1.5"/>
<line x1="686.0" y1="629.6" x2="706.0" y2="629.6" stroke="#2d3748" stroke-width="1.5"/>
<line x1="686.0" y1="226.4" x2="706.0" y2="226.4" stroke="#2d3748" stroke-width="1.5"/>
<rect x="679.0" y="373.9" width="34.0" height="173.6" rx="6" fill="#f6c177" stroke="#b7791f" stroke-width="1.6"/>
<line x1="679.0" y1="472.8" x2="713.0" y2="472.8" stroke="#c53030" stroke-width="2.2"/>
<circle cx="696.0" cy="457.0" r="3.2" fill="#1f4b99"/>
<text x="696.0" y="678" text-anchor="middle" style="font:12px Arial, sans-serif; fill:#1a202c;">user9</text>
<line x1="768.0" y1="614.7" x2="768.0" y2="166.7" stroke="#2d3748" stroke-width="1.5"/>
<line x1="758.0" y1="614.7" x2="778.0" y2="614.7" stroke="#2d3748" stroke-width="1.5"/>
<line x1="758.0" y1="166.7" x2="778.0" y2="166.7" stroke="#2d3748" stroke-width="1.5"/>
<rect x="751.0" y="390.7" width="34.0" height="168.0" rx="6" fill="#f6c177" stroke="#b7791f" stroke-width="1.6"/>
<line x1="751.0" y1="450.4" x2="785.0" y2="450.4" stroke="#c53030" stroke-width="2.2"/>
<circle cx="768.0" cy="459.1" r="3.2" fill="#1f4b99"/>
<text x="768.0" y="678" text-anchor="middle" style="font:12px Arial, sans-serif; fill:#1a202c;">user10</text>
<line x1="840.0" y1="607.2" x2="840.0" y2="204.0" stroke="#2d3748" stroke-width="1.5"/>
<line x1="830.0" y1="607.2" x2="850.0" y2="607.2" stroke="#2d3748" stroke-width="1.5"/>
<line x1="830.0" y1="204.0" x2="850.0" y2="204.0" stroke="#2d3748" stroke-width="1.5"/>
<rect x="823.0" y="355.2" width="34.0" height="160.5" rx="6" fill="#f6c177" stroke="#b7791f" stroke-width="1.6"/>
<line x1="823.0" y1="435.5" x2="857.0" y2="435.5" stroke="#c53030" stroke-width="2.2"/>
<circle cx="840.0" cy="433.8" r="3.2" fill="#1f4b99"/>
<text x="840.0" y="678" text-anchor="middle" style="font:12px Arial, sans-serif; fill:#1a202c;">user11</text>
<line x1="912.0" y1="637.1" x2="912.0" y2="218.9" stroke="#2d3748" stroke-width="1.5"/>
<line x1="902.0" y1="637.1" x2="922.0" y2="637.1" stroke="#2d3748" stroke-width="1.5"/>
<line x1="902.0" y1="218.9" x2="922.0" y2="218.9" stroke="#2d3748" stroke-width="1.5"/>
<rect x="895.0" y="381.3" width="34.0" height="151.2" rx="6" fill="#f6c177" stroke="#b7791f" stroke-width="1.6"/>
<line x1="895.0" y1="465.3" x2="929.0" y2="465.3" stroke="#c53030" stroke-width="2.2"/>
<circle cx="912.0" cy="449.8" r="3.2" fill="#1f4b99"/>
<circle cx="912.0" cy="92.0" r="2.5" fill="#805ad5" opacity="0.8"/>
<text x="912.0" y="678" text-anchor="middle" style="font:12px Arial, sans-serif; fill:#1a202c;">user12</text>
<line x1="984.0" y1="644.5" x2="984.0" y2="301.1" stroke="#2d3748" stroke-width="1.5"/>
<line x1="974.0" y1="644.5" x2="994.0" y2="644.5" stroke="#2d3748" stroke-width="1.5"/>
<line x1="974.0" y1="301.1" x2="994.0" y2="301.1" stroke="#2d3748" stroke-width="1.5"/>
<rect x="967.0" y="385.1" width="34.0" height="145.6" rx="6" fill="#f6c177" stroke="#b7791f" stroke-width="1.6"/>
<line x1="967.0" y1="472.8" x2="1001.0" y2="472.8" stroke="#c53030" stroke-width="2.2"/>
<circle cx="984.0" cy="466.5" r="3.2" fill="#1f4b99"/>
<text x="984.0" y="678" text-anchor="middle" style="font:12px Arial, sans-serif; fill:#1a202c;">user13</text>
<line x1="1056.0" y1="637.1" x2="1056.0" y2="248.8" stroke="#2d3748" stroke-width="1.5"/>
<line x1="1046.0" y1="637.1" x2="1066.0" y2="637.1" stroke="#2d3748" stroke-width="1.5"/>
<line x1="1046.0" y1="248.8" x2="1066.0" y2="248.8" stroke="#2d3748" stroke-width="1.5"/>
<rect x="1039.0" y="377.6" width="34.0" height="147.5" rx="6" fill="#f6c177" stroke="#b7791f" stroke-width="1.6"/>
<line x1="1039.0" y1="454.1" x2="1073.0" y2="454.1" stroke="#c53030" stroke-width="2.2"/>
<circle cx="1056.0" cy="438.2" r="3.2" fill="#1f4b99"/>
<circle cx="1056.0" cy="121.9" r="2.5" fill="#805ad5" opacity="0.8"/>
<circle cx="1056.0" cy="92.0" r="2.5" fill="#805ad5" opacity="0.8"/>
<text x="1056.0" y="678" text-anchor="middle" style="font:12px Arial, sans-serif; fill:#1a202c;">user14</text>
<line x1="1128.0" y1="614.7" x2="1128.0" y2="211.5" stroke="#2d3748" stroke-width="1.5"/>
<line x1="1118.0" y1="614.7" x2="1138.0" y2="614.7" stroke="#2d3748" stroke-width="1.5"/>
<line x1="1118.0" y1="211.5" x2="1138.0" y2="211.5" stroke="#2d3748" stroke-width="1.5"/>
<rect x="1111.0" y="388.8" width="34.0" height="121.3" rx="6" fill="#f6c177" stroke="#b7791f" stroke-width="1.6"/>
<line x1="1111.0" y1="461.6" x2="1145.0" y2="461.6" stroke="#c53030" stroke-width="2.2"/>
<circle cx="1128.0" cy="451.0" r="3.2" fill="#1f4b99"/>
<text x="1128.0" y="678" text-anchor="middle" style="font:12px Arial, sans-serif; fill:#1a202c;">user15</text>
<line x1="1200.0" y1="622.1" x2="1200.0" y2="316.0" stroke="#2d3748" stroke-width="1.5"/>
<line x1="1190.0" y1="622.1" x2="1210.0" y2="622.1" stroke="#2d3748" stroke-width="1.5"/>
<line x1="1190.0" y1="316.0" x2="1210.0" y2="316.0" stroke="#2d3748" stroke-width="1.5"/>
<rect x="1183.0" y="429.9" width="34.0" height="95.2" rx="6" fill="#f6c177" stroke="#b7791f" stroke-width="1.6"/>
<line x1="1183.0" y1="465.3" x2="1217.0" y2="465.3" stroke="#c53030" stroke-width="2.2"/>
<circle cx="1200.0" cy="455.6" r="3.2" fill="#1f4b99"/>
<circle cx="1200.0" cy="241.3" r="2.5" fill="#805ad5" opacity="0.8"/>
<circle cx="1200.0" cy="218.9" r="2.5" fill="#805ad5" opacity="0.8"/>
<circle cx="1200.0" cy="121.9" r="2.5" fill="#805ad5" opacity="0.8"/>
<text x="1200.0" y="678" text-anchor="middle" style="font:12px Arial, sans-serif; fill:#1a202c;">user16</text>
<line x1="1272.0" y1="622.1" x2="1272.0" y2="218.9" stroke="#2d3748" stroke-width="1.5"/>
<line x1="1262.0" y1="622.1" x2="1282.0" y2="622.1" stroke="#2d3748" stroke-width="1.5"/>
<line x1="1262.0" y1="218.9" x2="1282.0" y2="218.9" stroke="#2d3748" stroke-width="1.5"/>
<rect x="1255.0" y="416.8" width="34.0" height="143.7" rx="6" fill="#f6c177" stroke="#b7791f" stroke-width="1.6"/>
<line x1="1255.0" y1="513.9" x2="1289.0" y2="513.9" stroke="#c53030" stroke-width="2.2"/>
<circle cx="1272.0" cy="488.0" r="3.2" fill="#1f4b99"/>
<text x="1272.0" y="678" text-anchor="middle" style="font:12px Arial, sans-serif; fill:#1a202c;">user17</text>
<line x1="1344.0" y1="607.2" x2="1344.0" y2="278.7" stroke="#2d3748" stroke-width="1.5"/>
<line x1="1334.0" y1="607.2" x2="1354.0" y2="607.2" stroke="#2d3748" stroke-width="1.5"/>
<line x1="1334.0" y1="278.7" x2="1354.0" y2="278.7" stroke="#2d3748" stroke-width="1.5"/>
<rect x="1327.0" y="409.3" width="34.0" height="115.7" rx="6" fill="#f6c177" stroke="#b7791f" stroke-width="1.6"/>
<line x1="1327.0" y1="476.5" x2="1361.0" y2="476.5" stroke="#c53030" stroke-width="2.2"/>
<circle cx="1344.0" cy="443.8" r="3.2" fill="#1f4b99"/>
<circle cx="1344.0" cy="204.0" r="2.5" fill="#805ad5" opacity="0.8"/>
<circle cx="1344.0" cy="159.2" r="2.5" fill="#805ad5" opacity="0.8"/>
<circle cx="1344.0" cy="151.7" r="2.5" fill="#805ad5" opacity="0.8"/>
<circle cx="1344.0" cy="151.7" r="2.5" fill="#805ad5" opacity="0.8"/>
<text x="1344.0" y="678" text-anchor="middle" style="font:12px Arial, sans-serif; fill:#1a202c;">user18</text>
<line x1="1416.0" y1="622.1" x2="1416.0" y2="218.9" stroke="#2d3748" stroke-width="1.5"/>
<line x1="1406.0" y1="622.1" x2="1426.0" y2="622.1" stroke="#2d3748" stroke-width="1.5"/>
<line x1="1406.0" y1="218.9" x2="1426.0" y2="218.9" stroke="#2d3748" stroke-width="1.5"/>
<rect x="1399.0" y="355.2" width="34.0" height="151.2" rx="6" fill="#f6c177" stroke="#b7791f" stroke-width="1.6"/>
<line x1="1399.0" y1="428.0" x2="1433.0" y2="428.0" stroke="#c53030" stroke-width="2.2"/>
<circle cx="1416.0" cy="426.5" r="3.2" fill="#1f4b99"/>
<text x="1416.0" y="678" text-anchor="middle" style="font:12px Arial, sans-serif; fill:#1a202c;">user19</text>
<line x1="1488.0" y1="622.1" x2="1488.0" y2="248.8" stroke="#2d3748" stroke-width="1.5"/>
<line x1="1478.0" y1="622.1" x2="1498.0" y2="622.1" stroke="#2d3748" stroke-width="1.5"/>
<line x1="1478.0" y1="248.8" x2="1498.0" y2="248.8" stroke="#2d3748" stroke-width="1.5"/>
<rect x="1471.0" y="398.1" width="34.0" height="134.4" rx="6" fill="#f6c177" stroke="#b7791f" stroke-width="1.6"/>
<line x1="1471.0" y1="480.3" x2="1505.0" y2="480.3" stroke="#c53030" stroke-width="2.2"/>
<circle cx="1488.0" cy="466.2" r="3.2" fill="#1f4b99"/>
<circle cx="1488.0" cy="166.7" r="2.5" fill="#805ad5" opacity="0.8"/>
<text x="1488.0" y="678" text-anchor="middle" style="font:12px Arial, sans-serif; fill:#1a202c;">user20</text>
<rect x="1284" y="34" width="220" height="54" rx="10" fill="#fff" stroke="#eadfce"/>
<rect x="1298" y="50" width="18" height="12" rx="3" fill="#f6c177" stroke="#b7791f"/>
<text x="1324" y="60" style="font:12px Arial, sans-serif; fill:#1a202c;">IQR box (Q1-Q3)</text>
<line x1="1298" y1="76" x2="1316" y2="76" stroke="#c53030" stroke-width="2.2"/>
<text x="1324" y="80" style="font:12px Arial, sans-serif; fill:#1a202c;">Median</text>
<circle cx="1307" cy="94" r="3.2" fill="#1f4b99"/>
<text x="1324" y="98" style="font:12px Arial, sans-serif; fill:#1a202c;">Mean</text>
</svg>